PathFileType	4	(X/Y/Z)	 s07c0103.trc
DataRate	CameraRate	NumFrames	NumMarkers	Units	OrigDataRate	OrigDataStartFrame	OrigNumFrames
200	200	4	47	mm	200	1001	2000
Frame#	Time	racr			lacr			c7			jug			rlel			rdr			llel			ldr			s2			lic			ric			lasi			rasi			rpsi			lpsi			rgt			lgt			rth1			rth2			rth3			rth4			rlfc			rmfc			rsh1			rsh2			rsh3			rsh4			rcal			rtoe			rmt5			lth1			lth2			lth4			lth3			llfc			lmfc			lsh1			lsh2			lsh3			lsh4			llmal			lcal			ltoe			lmt5			SBIKE			LBIKE			RBIKE			
		X1	Y1	Z1	X2	Y2	Z2	X3	Y3	Z3	X4	Y4	Z4	X5	Y5	Z5	X6	Y6	Z6	X7	Y7	Z7	X8	Y8	Z8	X9	Y9	Z9	X10	Y10	Z10	X11	Y11	Z11	X12	Y12	Z12	X13	Y13	Z13	X14	Y14	Z14	X15	Y15	Z15	X16	Y16	Z16	X17	Y17	Z17	X18	Y18	Z18	X19	Y19	Z19	X20	Y20	Z20	X21	Y21	Z21	X22	Y22	Z22	X23	Y23	Z23	X24	Y24	Z24	X25	Y25	Z25	X26	Y26	Z26	X27	Y27	Z27	X28	Y28	Z28	X29	Y29	Z29	X30	Y30	Z30	X31	Y31	Z31	X32	Y32	Z32	X33	Y33	Z33	X34	Y34	Z34	X35	Y35	Z35	X36	Y36	Z36	X37	Y37	Z37	X38	Y38	Z38	X39	Y39	Z39	X40	Y40	Z40	X41	Y41	Z41	X42	Y42	Z42	X43	Y43	Z43	X44	Y44	Z44	X45	Y45	Z45	X46	Y46	Z46	X47	Y47	Z47	
1001	5.0050	519.369834	1386.418192	-120.716945	492.296133	1401.557074	-373.211411	465.639963	1440.643609	-242.421428	431.470282	1297.145956	-258.853534	514.979368	1086.975303	69.533312	716.918513	913.663041	-51.196852	522.371757	1097.602264	-535.194805	725.398899	915.233183	-411.197265	-127.180017	1205.496259	-187.298129	4.807538	1290.888930	-341.407703	75.997706	1225.619985	-70.072294	35.794065	1212.728299	-338.802528	84.691539	1181.116650	-93.465891	-87.982488	1237.414507	-137.630173	-100.902163	1266.420729	-239.706603	23.269736	1099.621826	-33.353026	-45.935404	1133.505440	-389.104831	155.601702	1014.924964	-44.668468	232.438101	975.967022	-61.674327	283.733877	907.505919	-63.864802	251.044248	1001.325523	-81.407158	357.505275	800.975610	-103.203487	338.461540	786.411447	-206.973117	257.620541	701.721426	-75.564110	214.461766	624.977891	-86.472813	140.542532	578.855796	-79.088207	227.276394	613.121349	-123.914966	-23.634328	514.774341	-104.693854	115.836486	260.207400	-122.029809	46.529018	307.284259	-52.333467	42.058474	1033.106540	-403.020746	121.255006	993.992982	-407.834590	145.422778	1020.860192	-402.713224	171.516989	920.645639	-404.331992	296.665296	794.637555	-378.917295	290.351302	770.255627	-286.513575	267.574653	649.981360	-404.680642	273.241460	565.812420	-385.717848	233.593876	484.820476	-396.949445	273.863429	568.472687	-343.646819	204.690644	348.441362	-395.975457	144.581933	290.064325	-364.645418	427.222780	354.392666	-354.510718	359.584922	305.911764	-421.577318	-258.030048	967.492278	-231.001045	-75.676647	83.418737	-437.274119	-82.221341	79.341719	-39.809298	
1002	5.0100	517.172277	1390.186877	-117.983309	493.350728	1403.400538	-371.553368	464.446779	1443.920366	-241.283599	430.731531	1300.263313	-257.307314	515.923999	1088.742295	69.699981	717.282843	914.508457	-50.734088	525.158404	1100.175003	-535.180973	725.597126	915.303656	-411.611698	-126.747025	1204.603166	-189.983820	5.635813	1288.992324	-344.438832	75.286354	1226.596153	-71.986985	36.874421	1211.041828	-341.396305	84.574261	1181.642441	-95.725750	-88.133249	1236.738282	-140.406394	-100.484568	1265.122955	-243.130246	24.251826	1100.638985	-34.759023	-45.402031	1131.146803	-390.981260	158.483259	1018.727110	-44.764429	236.287857	982.116149	-62.239075	289.616056	915.186148	-64.532928	253.858040	1007.919027	-82.447051	365.269679	810.223787	-104.010949	346.164680	795.244484	-207.688335	265.438568	710.873952	-76.049836	222.180839	634.158559	-86.604517	148.229173	588.285490	-79.016844	235.313862	622.496546	-123.713981	-13.629009	527.026739	-103.863782	115.853416	267.416317	-122.080491	48.332327	316.804105	-52.378711	40.457807	1029.592793	-405.120432	118.615813	988.522164	-409.917903	143.411507	1014.525457	-404.370421	166.873317	913.683236	-406.271576	288.654990	784.513866	-380.416009	280.587787	761.719912	-286.810710	260.455205	639.404322	-406.233736	267.549497	555.484766	-387.344698	229.278752	473.469999	-397.501288	268.846362	558.106498	-345.319766	202.573809	336.680211	-395.742955	142.724637	278.662662	-364.603483	425.259837	343.871477	-354.622114	357.723254	295.085385	-421.535120	-258.079075	967.490321	-231.234490	-75.683965	83.385099	-437.330250	-82.211670	79.356724	-39.864072	
1003	5.0150	514.831303	1393.985371	-115.105495	494.308555	1405.576211	-369.511749	463.173577	1447.203150	-239.763955	430.117330	1303.360244	-255.543680	516.871817	1090.713658	69.906626	717.399679	914.917012	-50.814951	528.044546	1103.059421	-535.040246	725.791114	915.383232	-411.843432	-126.179101	1203.761424	-192.902399	6.564378	1287.282749	-347.611818	74.357715	1227.707514	-73.881116	38.201834	1209.489434	-344.025852	84.401789	1182.740886	-97.748826	-88.336366	1236.258574	-143.346832	-99.954873	1263.923251	-246.597579	25.086472	1101.920724	-36.141508	-44.669402	1128.911275	-392.825368	161.005377	1022.981014	-45.308514	239.658565	988.418201	-63.224904	295.042997	923.170709	-65.215577	256.313172	1014.516339	-83.766413	372.761368	819.857806	-104.429731	353.320258	803.676537	-208.580535	273.457501	720.057071	-76.462816	230.338173	643.260770	-86.715013	156.465163	597.300943	-78.929588	243.268219	631.511126	-123.935736	-5.126068	538.228504	-104.516250	115.412843	273.867790	-123.359758	50.922470	326.326082	-52.150654	39.085132	1026.254441	-407.054313	116.122081	983.050399	-411.895568	141.571795	1008.503418	-406.267595	162.233009	907.049060	-408.555829	280.847276	774.493028	-381.790746	273.862992	752.123605	-289.563411	253.084787	629.006760	-407.806392	261.730830	545.143961	-389.074435	224.147140	463.251972	-398.313304	263.548740	548.155377	-346.856792	199.906778	325.727586	-395.823948	140.294134	267.891153	-364.560158	423.088445	334.154387	-355.661705	355.229640	284.457876	-421.523742	-258.117433	967.503176	-231.478165	-75.680978	83.333015	-437.344751	-82.203751	79.378043	-39.870081	
1004	5.0200	512.205805	1397.794428	-112.039583	495.143645	1408.026761	-366.899005	461.802282	1450.668819	-237.767260	429.168418	1306.718505	-253.499602	517.281415	1092.657631	69.802946	717.514457	915.260908	-50.923210	530.983258	1106.233428	-534.566306	725.952038	915.478330	-411.878317	-125.524271	1202.996590	-195.943726	7.604122	1285.822882	-350.865467	73.296462	1229.015216	-75.667531	39.598304	1208.017945	-346.506655	84.123653	1184.062434	-99.768535	-88.472004	1235.907008	-146.462519	-99.356731	1262.776309	-250.155007	25.900299	1103.485962	-37.632595	-43.811592	1126.960694	-394.607114	163.095471	1027.450376	-46.479492	242.555244	994.926321	-64.207045	299.832235	931.331913	-66.426819	258.459516	1021.349765	-85.180941	379.632555	829.479509	-104.969529	360.705839	813.086572	-208.613387	281.527147	729.278859	-76.858483	238.430763	652.536191	-87.006538	164.721140	606.347532	-78.906822	252.509612	640.600031	-123.992093	4.707366	549.340044	-104.446961	116.621068	281.127741	-123.442902	53.988837	335.656256	-52.309825	37.811150	1022.738887	-408.816165	113.703876	977.700889	-413.685829	139.827059	1002.476276	-408.072188	157.772823	900.452676	-410.241662	272.736322	764.748093	-383.464877	265.738206	743.525136	-291.185797	246.122438	619.187653	-409.264371	255.803123	535.519990	-390.396238	223.019921	451.459089	-396.915726	258.123108	538.459781	-348.388550	196.648729	315.361496	-396.028274	137.332514	257.607682	-364.588401	420.008404	322.628909	-354.670770	352.228635	273.967204	-421.586489	-258.102716	967.533628	-231.722513	-75.686602	83.293275	-437.355560	-82.213854	79.400126	-39.884649	
